<svg xmlns="http://www.w3.org/2000/svg" xmlns:svg="http://www.w3.org/2000/svg" xmlns:xlink="http://www.w3.org/1999/xlink" id="svg8" x="0" y="0" version="1.1" viewBox="0 0 320 93" xml:space="preserve" style="enable-background:new 0 0 320 93"><style type="text/css">.st0{fill:none;stroke:#000;stroke-width:.5;stroke-linecap:round;stroke-linejoin:round}.st1{font-family:&apos;Helvetica&apos;}.st2{font-size:14.0625px}.st3,.st4{fill:none;stroke:#000}.st3{stroke-width:.5}.st4{stroke-linecap:round;stroke-linejoin:round}</style><g id="layer1" transform="translate(-7.8689232,-243.78842)"><rect id="rect4487-0" width="28.3" height="56.7" x="90.3" y="279.8" class="st0"/><rect id="rect4487-7" width="28.3" height="56.7" x="147" y="279.8" class="st0"/><rect id="rect4487-0-1" width="28.3" height="56.7" x="203.7" y="279.8" class="st0"/><path id="path4495-2-3" d="M210.8,336.5l7.1-7.1l7.1,7.1" class="st0"/><text class="st1 st2" transform="matrix(1 0 0 1 122.8513 270.7455)">1</text><text class="st1 st2" transform="matrix(1 0 0 1 179.6541 270.8392)">2</text><text class="st1 st2" transform="matrix(1 0 0 1 236.0662 270.7396)">3</text><text class="st1 st2" transform="matrix(1 0 0 1 65.7947 270.7396)">0</text><path id="path6916" d="M62,294h28.3" class="st3"/><path id="path6918" d="M118.7,294H147" class="st3"/><path id="path6920" d="M175.4,294h28.3" class="st3"/><path id="path6964" d="M76.2,251.4h184.3h14.2" class="st4"/><path id="path6966" d="M76.2,294v-35.4l7.1-7.1" class="st0"/><text class="st1 st2" transform="matrix(1 0 0 1 280.9539 255.8626)">out[3:0]</text><path id="path6920-1" d="M232.1,294h14.1" class="st3"/><text class="st1 st2" transform="matrix(1 0 0 1 7.869 297.308)">in</text><path id="path4495-2-3-4" d="M154.1,336.5l7.1-7.1l7.1,7.1" class="st0"/><path id="path4495-2-3-4-5" d="M97.4,336.5l7.1-7.1l7.1,7.1" class="st0"/><path id="path6966-7" d="M132.9,294v-35.4l7.1-7.1" class="st0"/><path id="path6966-7-7" d="M189.6,294v-35.4l7.1-7.1" class="st0"/><path id="path6966-7-7-3" d="M246.2,294v-35.4l7.1-7.1" class="st0"/><rect id="rect4487-0_1_" width="28.3" height="56.7" x="33.7" y="279.8" class="st0"/><path id="path4495-2-3-4-5_1_" d="M40.8,336.5l7.1-7.1l7.1,7.1" class="st0"/><path id="path6916_1_" d="M19.6,294h14.1" class="st3"/></g></svg>